<svg version="1.1" xmlns="http://www.w3.org/2000/svg" xmlns:xlink="http://www.w3.org/1999/xlink" width="27" height="61"><defs/><g><path fill="rgb(1,0,0)" stroke="none" paint-order="stroke fill markers" fill-rule="evenodd" d=" M 23.449630737304688 31.53883194923401 C 23.449630737304688 31.53883194923401 23.449630737304688 31.53883194923401 23.449630737304688 31.53883194923401 C 23.449630737304688 31.53883194923401 23.449630737304688 13.675373554229736 23.449630737304688 13.675373554229736 C 23.449630737304688 8.183789014816284 18.97350311279297 3.7352678775787354 13.449668884277344 3.7352678775787354 C 7.926177978515625 3.7352678775787354 3.44970703125 8.185016870498657 3.44970703125 13.675373554229736 C 3.44970703125 13.675373554229736 3.44970703125 31.53883194923401 3.44970703125 31.53883194923401 C 3.44970703125 37.03103041648865 7.925834655761719 41.479551553726196 13.449668884277344 41.479551553726196 C 18.973159790039062 41.479551553726196 23.449630737304688 37.029802560806274 23.449630737304688 31.53883194923401 C 23.449630737304688 31.53883194923401 23.449630737304688 31.53883194923401 23.449630737304688 31.53883194923401 Z M 25.44971466064453 31.53883194923401 C 25.44971466064453 38.126277685165405 20.07854461669922 43.4656081199646 13.449668884277344 43.4656081199646 C 6.8222808837890625 43.4656081199646 1.4496231079101562 38.13057518005371 1.4496231079101562 31.53883194923401 C 1.4496231079101562 31.53883194923401 1.4496231079101562 13.675373554229736 1.4496231079101562 13.675373554229736 C 1.4496231079101562 7.088541746139526 6.820793151855469 1.749211311340332 13.449668884277344 1.749211311340332 C 20.077056884765625 1.749211311340332 25.44971466064453 7.085472106933594 25.44971466064453 13.675373554229736 C 25.44971466064453 13.675373554229736 25.44971466064453 31.53883194923401 25.44971466064453 31.53883194923401 C 25.44971466064453 31.53883194923401 25.44971466064453 31.53883194923401 25.44971466064453 31.53883194923401 Z M 12.449684143066406 11.092579126358032 C 12.449684143066406 11.092579126358032 12.449684143066406 15.065920114517212 12.449684143066406 15.065920114517212 C 12.449684143066406 15.614771604537964 12.897262573242188 16.05864143371582 13.449668884277344 16.05864143371582 C 14.001960754394531 16.05864143371582 14.449653625488281 15.614771604537964 14.449653625488281 15.065920114517212 C 14.449653625488281 15.065920114517212 14.449653625488281 11.092579126358032 14.449653625488281 11.092579126358032 C 14.449653625488281 10.54372763633728 14.001960754394531 10.09862995147705 13.449668884277344 10.09862995147705 C 12.897262573242188 10.09862995147705 12.449684143066406 10.54372763633728 12.449684143066406 11.092579126358032 C 12.449684143066406 11.092579126358032 12.449684143066406 11.092579126358032 12.449684143066406 11.092579126358032 Z M 12.742538452148438 59.472548723220825 C 12.742538452148438 59.472548723220825 6.535606384277344 53.30687141418457 6.535606384277344 53.30687141418457 C 6.14501953125 52.919482946395874 6.14501953125 52.290820837020874 6.535606384277344 51.90281844139099 C 6.9261932373046875 51.51481604576111 7.559165954589844 51.51481604576111 7.949867248535156 51.90281844139099 C 7.949867248535156 51.90281844139099 13.449668884277344 57.36493444442749 13.449668884277344 57.36493444442749 C 13.449668884277344 57.36493444442749 18.99707794189453 51.85493206977844 18.99707794189453 51.85493206977844 C 19.387550354003906 51.46815752983093 20.020751953125 51.46815752983093 20.411224365234375 51.85493206977844 C 20.80181121826172 52.242934465408325 20.80181121826172 52.871596574783325 20.411224365234375 53.25959897041321 C 20.411224365234375 53.25959897041321 14.15679931640625 59.472548723220825 14.15679931640625 59.472548723220825 C 13.961448669433594 59.66593599319458 13.705558776855469 59.76355051994324 13.449668884277344 59.76355051994324 C 13.193778991699219 59.76355051994324 12.937889099121094 59.66593599319458 12.742538452148438 59.472548723220825 Z"/></g></svg>