<svg version="1.1" xmlns="http://www.w3.org/2000/svg" xmlns:xlink="http://www.w3.org/1999/xlink" width="43" height="41"><defs/><g><path fill="rgb(15,42,49)" stroke="none" paint-order="stroke fill markers" fill-rule="evenodd" d=" M 9.79791259765625 8.838670253753662 C 9.79791259765625 8.838670253753662 1.9972763061523438 8.838670253753662 1.9972763061523438 8.838670253753662 C 1.9972763061523438 8.838670253753662 1.9972763061523438 1.0006535053253174 1.9972763061523438 1.0006535053253174 C 1.9972763061523438 1.0006535053253174 9.79791259765625 1.0006535053253174 9.79791259765625 1.0006535053253174 C 9.79791259765625 1.0006535053253174 9.79791259765625 8.838670253753662 9.79791259765625 8.838670253753662 Z M 9.79791259765625 24.323158264160156 C 9.79791259765625 24.323158264160156 1.9972763061523438 24.323158264160156 1.9972763061523438 24.323158264160156 C 1.9972763061523438 24.323158264160156 1.9972763061523438 16.48514151573181 1.9972763061523438 16.48514151573181 C 1.9972763061523438 16.48514151573181 9.79791259765625 16.48514151573181 9.79791259765625 16.48514151573181 C 9.79791259765625 16.48514151573181 9.79791259765625 24.323158264160156 9.79791259765625 24.323158264160156 Z M 25.399185180664062 8.838670253753662 C 25.399185180664062 8.838670253753662 17.598548889160156 8.838670253753662 17.598548889160156 8.838670253753662 C 17.598548889160156 8.838670253753662 17.598548889160156 1.0006535053253174 17.598548889160156 1.0006535053253174 C 17.598548889160156 1.0006535053253174 25.399185180664062 1.0006535053253174 25.399185180664062 1.0006535053253174 C 25.399185180664062 1.0006535053253174 25.399185180664062 8.838670253753662 25.399185180664062 8.838670253753662 Z M 25.399185180664062 24.323158264160156 C 25.399185180664062 24.323158264160156 17.598548889160156 24.323158264160156 17.598548889160156 24.323158264160156 C 17.598548889160156 24.323158264160156 17.598548889160156 16.48514151573181 17.598548889160156 16.48514151573181 C 17.598548889160156 16.48514151573181 25.399185180664062 16.48514151573181 25.399185180664062 16.48514151573181 C 25.399185180664062 16.48514151573181 25.399185180664062 24.323158264160156 25.399185180664062 24.323158264160156 Z M 9.79791259765625 39.99980568885803 C 9.79791259765625 39.99980568885803 1.9972763061523438 39.99980568885803 1.9972763061523438 39.99980568885803 C 1.9972763061523438 39.99980568885803 1.9972763061523438 32.16178894042969 1.9972763061523438 32.16178894042969 C 1.9972763061523438 32.16178894042969 9.79791259765625 32.16178894042969 9.79791259765625 32.16178894042969 C 9.79791259765625 32.16178894042969 9.79791259765625 39.99980568885803 9.79791259765625 39.99980568885803 Z M 25.399185180664062 39.99980568885803 C 25.399185180664062 39.99980568885803 17.598548889160156 39.99980568885803 17.598548889160156 39.99980568885803 C 17.598548889160156 39.99980568885803 17.598548889160156 32.16178894042969 17.598548889160156 32.16178894042969 C 17.598548889160156 32.16178894042969 25.399185180664062 32.16178894042969 25.399185180664062 32.16178894042969 C 25.399185180664062 32.16178894042969 25.399185180664062 39.99980568885803 25.399185180664062 39.99980568885803 Z M 41.000457763671875 8.838670253753662 C 41.000457763671875 8.838670253753662 33.19982147216797 8.838670253753662 33.19982147216797 8.838670253753662 C 33.19982147216797 8.838670253753662 33.19982147216797 1.0006535053253174 33.19982147216797 1.0006535053253174 C 33.19982147216797 1.0006535053253174 41.000457763671875 1.0006535053253174 41.000457763671875 1.0006535053253174 C 41.000457763671875 1.0006535053253174 41.000457763671875 8.838670253753662 41.000457763671875 8.838670253753662 Z M 41.000457763671875 24.323158264160156 C 41.000457763671875 24.323158264160156 33.19982147216797 24.323158264160156 33.19982147216797 24.323158264160156 C 33.19982147216797 24.323158264160156 33.19982147216797 16.48514151573181 33.19982147216797 16.48514151573181 C 33.19982147216797 16.48514151573181 41.000457763671875 16.48514151573181 41.000457763671875 16.48514151573181 C 41.000457763671875 16.48514151573181 41.000457763671875 24.323158264160156 41.000457763671875 24.323158264160156 Z M 41.000457763671875 39.99980568885803 C 41.000457763671875 39.99980568885803 33.19982147216797 39.99980568885803 33.19982147216797 39.99980568885803 C 33.19982147216797 39.99980568885803 33.19982147216797 32.16178894042969 33.19982147216797 32.16178894042969 C 33.19982147216797 32.16178894042969 41.000457763671875 32.16178894042969 41.000457763671875 32.16178894042969 C 41.000457763671875 32.16178894042969 41.000457763671875 39.99980568885803 41.000457763671875 39.99980568885803 Z"/></g></svg>