<svg version="1.1" xmlns="http://www.w3.org/2000/svg" xmlns:xlink="http://www.w3.org/1999/xlink" width="49" height="45"><defs/><g><path fill="rgb(15,42,49)" stroke="none" paint-order="stroke fill markers" fill-rule="evenodd" d=" M 1.0000152587890625 1.000136137008667 C 1.0000152587890625 1.000136137008667 1.0000152587890625 33.32220911979675 1.0000152587890625 33.32220911979675 C 1.0000152587890625 33.32220911979675 8.828460693359375 33.32220911979675 8.828460693359375 33.32220911979675 C 8.828460693359375 36.88974380493164 8.828460693359375 40.40263891220093 8.828460693359375 43.99964213371277 C 8.963272094726562 43.8934326171875 9.040061950683594 43.837565183639526 9.112045288085938 43.77555847167969 C 13.099624633789062 40.355366468429565 17.087890625 36.93517446517944 21.07135009765625 33.51007103919983 C 21.169540405273438 33.42534899711609 21.266815185546875 33.36395621299744 21.372100830078125 33.32220911979675 C 21.372100830078125 33.32220911979675 47.99998474121094 33.32220911979675 47.99998474121094 33.32220911979675 C 47.99998474121094 33.32220911979675 47.99998474121094 1.000136137008667 47.99998474121094 1.000136137008667 C 47.99998474121094 1.000136137008667 1.0000152587890625 1.000136137008667 1.0000152587890625 1.000136137008667 Z M 13.945457458496094 19.867980480194092 C 12.491485595703125 19.8538601398468 11.338150024414062 18.648719787597656 11.343643188476562 17.14889407157898 C 11.349136352539062 15.658891201019287 12.530052185058594 14.46295976638794 13.985054016113281 14.472168684005737 C 15.412704467773438 14.481991529464722 16.579429626464844 15.698182582855225 16.576797485351562 17.174679040908813 C 16.57427978515625 18.66222620010376 15.382377624511719 19.881486892700195 13.945457458496094 19.867980480194092 Z M 24.427330017089844 19.86675262451172 C 23.00128173828125 19.875961542129517 21.826316833496094 18.663454055786133 21.822311401367188 17.178362607955933 C 21.81842041015625 15.692657232284546 22.983314514160156 14.474624395370483 24.409019470214844 14.472782611846924 C 25.87775421142578 14.47155475616455 27.036468505859375 15.653979778289795 27.041732788085938 17.15933084487915 C 27.04711151123047 18.662840127944946 25.893890380859375 19.856929779052734 24.427330017089844 19.86675262451172 Z M 34.92213439941406 19.865524768829346 C 33.47022247314453 19.86859440803528 32.29685974121094 18.66897940635681 32.29022216796875 17.174679040908813 C 32.28369903564453 15.676695108413696 33.471595764160156 14.464801549911499 34.93952941894531 14.474624395370483 C 36.3707275390625 14.482605457305908 37.52532196044922 15.690815448760986 37.52165985107422 17.175906896591187 C 37.51788330078125 18.656086921691895 36.351844787597656 19.862455129623413 34.92213439941406 19.865524768829346 Z"/></g></svg>